<?xml version="1.0" standalone="no"?>
<!DOCTYPE svg PUBLIC "-//W3C//DTD SVG 20010904//EN"
 "http://www.w3.org/TR/2001/REC-SVG-20010904/DTD/svg10.dtd">
<svg version="1.0" xmlns="http://www.w3.org/2000/svg"
 width="512.000000pt" height="512.000000pt" viewBox="0 0 512.000000 512.000000"
 preserveAspectRatio="xMidYMid meet">
<metadata>
Created by potrace 1.14, written by Peter Selinger 2001-2017
</metadata>
<g transform="translate(0.000000,512.000000) scale(0.100000,-0.100000)"
fill="#000000" stroke="none">
<path d="M1445 5099 c-64 -9 -93 -21 -133 -53 -57 -49 -74 -88 -81 -193 -4
-70 -10 -98 -21 -104 -8 -4 -59 -26 -114 -49 l-98 -41 -57 54 c-70 67 -108 87
-172 92 -95 7 -129 -13 -291 -175 -160 -159 -181 -190 -181 -280 0 -68 22
-118 77 -174 73 -75 71 -62 25 -177 -23 -57 -48 -109 -56 -115 -7 -6 -47 -12
-88 -13 -111 -3 -170 -34 -223 -115 l-27 -41 -2 -226 -3 -225 33 -54 c21 -36
48 -64 81 -84 42 -27 59 -31 141 -34 l93 -4 46 -115 47 -115 -54 -57 c-30 -31
-62 -72 -72 -90 -25 -49 -24 -146 3 -197 31 -60 286 -313 340 -336 89 -40 185
-21 260 51 85 81 69 79 189 30 60 -24 110 -45 113 -47 3 -2 7 -45 10 -97 5
-80 10 -99 36 -141 18 -30 48 -60 78 -79 l49 -30 227 0 227 0 49 30 c30 19 60
49 79 79 26 43 30 61 34 135 1 47 7 91 13 98 5 7 26 17 46 24 20 6 65 25 100
40 34 16 66 29 70 29 5 0 28 -19 53 -43 63 -61 99 -84 144 -93 63 -13 112 -7
162 20 46 23 300 281 324 328 46 89 21 204 -61 283 -64 62 -65 67 -32 138 16
34 35 80 43 102 8 22 18 43 24 47 5 4 42 8 80 8 122 1 196 43 239 134 25 53
26 61 26 252 0 233 -6 261 -71 326 -54 54 -100 70 -202 71 -38 0 -71 5 -75 11
-3 6 -26 58 -49 115 -33 80 -40 107 -32 118 7 7 31 33 54 57 58 61 78 108 78
182 -1 86 -27 126 -191 286 -151 148 -187 168 -279 163 -64 -4 -104 -25 -175
-93 l-57 -54 -43 20 c-24 11 -68 30 -98 42 -90 35 -84 28 -90 126 -4 56 -13
103 -24 127 -24 49 -89 104 -138 118 -45 12 -329 17 -403 8z m315 -1000 c99
-19 216 -85 301 -169 88 -87 139 -172 169 -281 89 -326 -93 -660 -420 -773
-42 -14 -85 -19 -180 -19 -139 -1 -157 2 -250 40 -203 84 -353 272 -386 486
-10 63 -4 193 11 252 44 173 176 335 335 412 141 67 265 83 420 52z"/>
<path d="M3350 4163 c-61 -18 -92 -58 -85 -114 7 -51 43 -81 103 -84 289 -17
508 -111 698 -299 96 -95 166 -194 215 -301 31 -69 79 -225 79 -256 0 -19 -2
-18 -30 3 -45 33 -97 28 -132 -11 -29 -32 -37 -81 -19 -110 17 -27 244 -251
255 -252 6 0 19 -2 30 -4 37 -7 71 18 186 134 80 80 119 127 123 147 12 63
-44 124 -107 118 -16 -2 -46 -17 -67 -33 -31 -25 -38 -28 -37 -13 2 45 -21
151 -54 247 -101 296 -326 554 -603 693 -76 38 -172 78 -212 87 -10 3 -36 9
-58 14 -58 14 -101 20 -180 27 -38 3 -74 7 -80 8 -5 2 -17 1 -25 -1z"/>
<path d="M3692 2568 c-55 -9 -94 -31 -127 -70 -36 -43 -46 -72 -47 -141 -1
-54 -4 -60 -27 -70 -14 -5 -49 -20 -77 -32 l-50 -22 -44 43 c-66 65 -138 83
-218 56 -32 -11 -72 -43 -157 -128 -63 -62 -122 -128 -131 -146 -23 -43 -23
-133 -1 -175 9 -17 33 -49 52 -70 19 -21 35 -40 35 -43 0 -3 -13 -37 -29 -75
l-30 -70 -68 -6 c-37 -3 -82 -13 -99 -22 -36 -18 -81 -68 -96 -106 -18 -43
-17 -339 0 -386 31 -82 91 -124 193 -134 l70 -6 31 -72 30 -73 -45 -51 c-65
-75 -81 -163 -43 -237 22 -43 232 -248 273 -268 46 -21 120 -21 166 1 18 8 50
33 71 54 l38 38 76 -32 77 -32 2 -54 c4 -102 46 -171 127 -204 47 -20 316 -24
381 -6 46 12 96 54 119 99 19 37 24 62 25 124 1 45 2 47 39 59 20 6 53 20 73
30 l35 18 50 -45 c51 -46 119 -75 164 -68 71 11 109 37 218 147 61 63 118 130
127 150 33 78 10 170 -58 237 l-36 36 31 77 32 77 57 0 c83 0 155 40 191 105
27 50 27 51 25 230 -2 159 -4 184 -21 210 -48 74 -107 105 -201 105 l-51 0
-32 77 -32 78 39 40 c21 22 46 54 55 72 20 40 21 113 1 160 -20 46 -217 248
-270 275 -82 43 -183 20 -258 -60 l-28 -30 -47 23 c-26 12 -59 25 -73 28 -24
6 -26 12 -32 76 -9 108 -49 169 -133 202 -33 12 -280 18 -342 7z m293 -980
c61 -31 130 -103 156 -164 69 -154 -3 -345 -159 -421 -48 -24 -70 -28 -137
-28 -66 0 -90 5 -135 26 -124 59 -192 166 -191 303 0 128 92 255 219 301 62
22 187 13 247 -17z"/>
<path d="M1050 1724 c-44 -32 -238 -233 -245 -255 -11 -35 4 -87 32 -109 38
-30 91 -26 134 9 l35 29 17 -90 c62 -327 240 -596 527 -794 89 -62 290 -150
383 -169 15 -3 38 -7 52 -10 59 -12 84 -15 152 -21 120 -10 173 20 173 99 0
56 -43 97 -102 98 -24 0 -52 2 -63 3 -115 15 -148 21 -205 37 -77 24 -83 26
-181 74 -166 81 -321 227 -418 394 -58 99 -111 243 -125 339 l-4 32 30 -25
c39 -33 87 -33 126 0 35 30 45 69 27 110 -7 16 -64 81 -127 143 -99 98 -120
114 -154 118 -28 4 -46 0 -64 -12z"/>
</g>
</svg>
